<svg t="1596271633927" class="icon" viewBox="0 0 1024 1024" version="1.1" xmlns="http://www.w3.org/2000/svg" p-id="2363" width="200" height="200"><path d="M827.07692267 343.63076907c0-126.03076907-100.82461547-231.05641067-220.55384534-231.0564096H259.93846187c-23.10564053 0-42.010256 18.90461547-42.01025707 42.010256v693.16923093c0 23.10564053 18.90461547 42.010256 42.01025707 42.010256h346.58461546C726.2523072 889.7641024 827.07692267 784.73846187 827.07692267 658.7076928c0-60.91487147-23.10564053-115.5282048-60.91487147-157.53846186 37.80923093-42.010256 60.91487147-96.62358933 60.91487147-157.53846187zM606.52307733 742.7282048H364.9641024v-168.04102506h241.55897493c39.909744 0 75.61846187 39.909744 75.6184608 84.02051306s-35.70871787 84.02051307-75.6184608 84.020512z m0-315.07692266H364.9641024v-168.04102614h241.55897493c39.909744 0 75.61846187 39.909744 75.6184608 84.02051307s-35.70871787 84.02051307-75.6184608 84.02051307z" p-id="2364"></path></svg>