<svg t="1596271645742" class="icon" viewBox="0 0 1024 1024" version="1.1" xmlns="http://www.w3.org/2000/svg" p-id="2495" width="200" height="200"><path d="M1016.12307733 175.9179488c0-46.21128213-37.80923093-84.02051307-84.02051306-84.02051307H91.89743573c-46.21128213 0-84.02051307 37.80923093-84.02051306 84.02051307v672.1641024c0 46.21128213 37.80923093 84.02051307 84.02051306 84.02051307h840.20512854c46.21128213 0 84.02051307-37.80923093 84.02051306-84.02051307V175.9179488zM797.669744 764.06153813h-609.14871787c-25.2061536 0-39.909744-27.30666667-27.30666666-48.31179413l184.84512746-321.37846187c8.4020512-14.70358933 27.30666667-14.70358933 35.70871787 0l111.32717973 191.14666667c8.4020512 12.60307733 27.30666667 14.70358933 35.70871787 2.10051307l90.3220512-130.2317952c8.4020512-12.60307733 27.30666667-12.60307733 35.70871787 0L820.77538453 722.05128213c12.60307733 18.90461547 0 42.010256-23.10564053 42.010256zM743.05641067 385.96923093c-46.21128213 0-84.02051307-37.80923093-84.02051307-84.02051306s37.80923093-84.02051307 84.02051307-84.02051307 84.02051307 37.80923093 84.020512 84.02051307-37.80923093 84.02051307-84.020512 84.02051306z" p-id="2496"></path></svg>