<svg t="1596271656034" class="icon" viewBox="0 0 1024 1024" version="1.1" xmlns="http://www.w3.org/2000/svg" p-id="2627" width="200" height="200"><path d="M780.86564067 182.28950471V153.1623936c0-24.64601657-20.16492317-44.81093973-44.81093973-44.81094086H422.37811939c-24.64601657 0-44.81093973 20.16492317-44.81093973 44.81094086v44.81093973c0 24.64601657 20.16492317 44.81093973 44.81093973 44.81093974 38.08929906 0 67.21641017 35.84875179 58.25422223 71.69750471L399.9726501 708.81805085c-6.72164067 29.12711111-31.36765838 49.29203427-58.25422223 49.29203427H287.94529906c-24.64601657 0-44.81093973 20.16492317-44.81093973 44.81094087v44.81093974c0 24.64601657 20.16492317 44.81093973 44.81093973 44.81093973h313.67658155c24.64601657 0 44.81093973-20.16492317 44.81093973-44.81093973v-44.81093974c0-24.64601657-20.16492317-44.81093973-44.81093973-44.81094087-38.08929906 0-67.21641017-35.84875179-58.25422223-71.69750357L624.0273499 292.07630735c6.72164067-29.12711111 31.36765838-49.29203427 58.25422223-49.29203428h38.08930019c33.60820565 0 60.49476949-26.88656384 60.49476835-60.49476836z" p-id="2628"></path></svg>