<svg t="1596271676025" class="icon" viewBox="0 0 1024 1024" version="1.1" xmlns="http://www.w3.org/2000/svg" p-id="3022" width="200" height="200"><path d="M534.15384594 801.84615406l-38.76923063-5.53846218s-25.84615406-5.53846125-38.76923062-11.0769225c-7.38461531-1.84615406-16.61538469 0-22.15384594 5.53846125l-9.23076937 9.23076937c-53.53846125 53.53846125-140.30769188 59.07692344-195.69230813 11.07692344-62.76923062-53.53846125-64.61538469-149.53846125-7.38461531-206.76923156l140.30769281-140.30769188c18.46153875-18.46153875 40.61538469-29.53846125 62.76923062-36.92307656 29.53846125-7.38461531 60.92307656-5.53846125 88.61538469 5.53846125 16.61538469 7.38461531 33.23076938 16.61538469 48 31.38461531 7.38461531 7.38461531 12.92307656 14.76923062 18.46153781 24 7.38461531 12.92307656 24 14.76923062 33.23076938 3.69230813l51.69230812-51.69230813c7.38461531-7.38461531 7.38461531-18.46153875 1.84615407-27.69230812-7.38461531-11.07692344-16.61538469-20.30769187-25.84615407-29.53846125-12.92307656-12.92307656-27.69230813-25.84615406-44.30769281-35.0769225-25.84615406-16.61538469-55.38461531-27.69230813-86.76923062-33.23076938-57.23076938-11.07692344-120-1.84615406-171.69230719 25.84615313-20.30769187 11.07692344-40.61538469 25.84615406-57.23076938 42.46153875l-134.76923062 134.76923062C48.61538469 615.38461531 41.23076938 774.15384594 135.38461531 873.84615406c97.84615406 107.07692344 264 108.92307656 365.53846125 7.38461531l46.15384688-46.15384593c12.92307656-9.23076937 3.69230812-31.38461531-12.9230775-33.23076938zM873.84615406 139.07692344c-101.53846125-94.15384594-260.30769187-86.76923062-356.30769281 11.0769225L475.07692344 190.76923062c-12.92307656 12.92307656-3.69230812 35.07692344 12.92307656 36.92307751 25.84615406 1.84615406 51.69230812 7.38461531 77.53846125 14.76923062 7.38461531 1.84615406 16.61538469 0 22.15384687-5.53846219l9.23076844-9.23076843c53.53846125-53.53846125 140.30769188-59.07692344 195.69230813-11.07692344 62.76923062 53.53846125 64.61538469 149.53846125 7.38461531 206.76923062L659.69230813 563.69230812c-18.46153875 18.46153875-40.61538469 29.53846125-62.76923157 36.92307657-29.53846125 7.38461531-60.92307656 5.53846125-88.61538468-5.53846125-16.61538469-7.38461531-33.23076938-16.61538469-48-31.38461532-7.38461531-7.38461531-12.92307656-14.76923062-18.46153782-23.99999999-7.38461531-12.92307656-24-14.76923062-33.23076937-3.69230813l-51.69230813 51.69230812c-7.38461531 7.38461531-7.38461531 18.46153875-1.84615312 27.69230719 7.38461531 11.07692344 16.61538469 20.30769187 25.84615312 29.53846125 12.92307656 12.92307656 29.53846125 25.84615406 44.30769282 35.07692344 25.84615406 16.61538469 55.38461531 27.69230813 84.92307656 33.23076937 57.23076938 11.07692344 120 1.84615406 171.69230812-25.84615406 20.30769187-11.07692344 40.61538469-25.84615406 57.23076938-42.46153875l140.30769187-140.30769187c103.38461531-101.53846125 99.69230813-267.69230812-5.53846125-365.53846125z" p-id="3023"></path></svg>