<svg t="1596271723317" class="icon" viewBox="0 0 1024 1024" version="1.1" xmlns="http://www.w3.org/2000/svg" p-id="3680" width="200" height="200"><path d="M6.526 279.054c0-14.954 7.834-23.144 23.146-23.144h30.262V176.156c0-10.326 1.068-21.006 1.068-21.006h-0.712s-3.558 5.34-5.696 7.476c-8.902 8.546-21.008 8.902-31.332-2.136l-11.036-12.462c-10.684-10.682-9.968-22.432 1.068-32.758l43.44-39.876C65.63 67.204 73.464 64 85.57 64H109.78c15.312 0 23.498 7.832 23.498 23.144v168.768h30.976c15.31 0 23.144 8.188 23.144 23.144v17.802c0 14.954-7.834 23.144-23.144 23.144H29.672c-15.312 0-23.146-8.19-23.146-23.144v-17.804zM4.422 609.182c0-94.556 101.91-112.766 101.91-138.33 0-14.36-11.908-17.51-18.56-17.51-6.306 0-12.958 2.102-18.91 7.704-10.158 9.806-21.014 14.008-32.222 4.902l-17.158-13.658c-11.558-9.106-14.36-19.61-5.606-30.818C27.184 403.962 52.05 384 94.774 384c38.874 0 88.952 21.012 88.952 79.146 0 76.694-93.506 92.804-97.358 113.818h78.098c15.058 0 23.114 8.054 23.114 22.764v17.51c0 14.708-8.056 22.764-23.114 22.764h-135.88c-14.01 0-24.166-8.056-24.166-22.764v-8.056zM11.308 909.22l11.206-18.56c7.706-13.308 18.21-14.008 31.168-6.304 9.806 4.202 19.26 6.304 28.718 6.304 20.31 0 28.716-7.004 28.716-16.46 0-13.308-11.208-18.212-31.868-18.212h-9.456c-11.908 0-18.56-4.202-24.516-15.76l-2.1-3.852c-4.902-9.456-2.452-19.612 5.602-29.768l11.208-14.008c13.658-16.81 24.514-26.966 24.514-26.966v-0.7s-8.406 2.102-25.216 2.102H33.37c-15.06 0-22.766-8.056-22.766-22.764v-17.51c0-15.06 7.706-22.764 22.766-22.764h116.968c15.058 0 22.764 8.054 22.764 22.764v6.654c0 11.556-2.802 19.612-10.158 28.366l-35.018 40.274c39.222 10.156 57.432 40.974 57.432 69.69 0 42.726-28.716 88.252-97.006 88.252-33.272 0-56.384-9.456-71.792-18.91-11.558-8.404-12.608-19.61-5.252-31.868zM288 264h704c17.674 0 32-14.326 32-32V152c0-17.674-14.326-32-32-32H288c-17.674 0-32 14.326-32 32v80c0 17.674 14.326 32 32 32z m0 320h704c17.674 0 32-14.326 32-32v-80c0-17.674-14.326-32-32-32H288c-17.674 0-32 14.326-32 32v80c0 17.674 14.326 32 32 32z m0 320h704c17.674 0 32-14.326 32-32v-80c0-17.674-14.326-32-32-32H288c-17.674 0-32 14.326-32 32v80c0 17.674 14.326 32 32 32z" p-id="3681"></path></svg>