<svg t="1596271561403" class="icon" viewBox="0 0 1024 1024" version="1.1" xmlns="http://www.w3.org/2000/svg" p-id="1119" width="200" height="200"><path d="M896 85.333333H128a42.666667 42.666667 0 0 0-42.666667 42.666667v768a42.666667 42.666667 0 0 0 42.666667 42.666667h768a42.666667 42.666667 0 0 0 42.666667-42.666667V128a42.666667 42.666667 0 0 0-42.666667-42.666667zM341.333333 853.333333H170.666667v-170.666666h170.666666z m0-256H170.666667v-170.666666h170.666666z m0-256H170.666667V170.666667h170.666666z m256 512h-170.666666v-170.666666h170.666666z m0-256h-170.666666v-170.666666h170.666666z m0-256h-170.666666V170.666667h170.666666z m256 512h-170.666666v-170.666666h170.666666z m0-256h-170.666666v-170.666666h170.666666z m0-256h-170.666666V170.666667h170.666666z" p-id="1120"></path></svg>